<svg width="860" height="300" viewBox="0 0 860 300" fill="none" xmlns="http://www.w3.org/2000/svg" role="img" aria-label="Raw noisy TESS light curve">
  <rect width="860" height="300" rx="14" fill="#0a0d1a"/>
  <g stroke="#1b2440" stroke-width="1">
    <line x1="60" y1="60" x2="820" y2="60"/><line x1="60" y1="120" x2="820" y2="120"/>
    <line x1="60" y1="180" x2="820" y2="180"/><line x1="60" y1="240" x2="820" y2="240"/>
  </g>
  <line x1="60" y1="40" x2="60" y2="260" stroke="#2a3457" stroke-width="1.5"/>
  <line x1="60" y1="260" x2="820" y2="260" stroke="#2a3457" stroke-width="1.5"/>
  <text x="20" y="155" fill="#8b96bd" font-family="monospace" font-size="12" transform="rotate(-90 20 155)">Flux (e⁻/s)</text>
  <text x="420" y="288" fill="#8b96bd" font-family="monospace" font-size="12" text-anchor="middle">Time (BTJD days)</text>
  <text x="74" y="32" fill="#ff6b81" font-family="monospace" font-size="12">RAW · SNR ≈ 2.1 · σ = 1180 ppm</text>
  <!-- noisy scatter approximated by a jagged path -->
  <path d="M60 150 L70 138 L78 162 L86 142 L96 168 L104 134 L112 158 L120 176 L128 140 L138 120 L146 158 L154 188 L162 132 L170 150 L180 168 L188 128 L196 150 L206 178 L214 138 L222 160 L230 196 L238 130 L248 150 L256 170 L264 134 L272 158 L282 180 L290 142 L298 120 L306 160 L314 188 L322 132 L332 150 L340 172 L348 130 L356 154 L366 184 L374 138 L382 160 L390 200 L398 132 L408 150 L416 174 L424 136 L432 158 L442 180 L450 140 L458 118 L466 160 L474 190 L482 134 L492 150 L500 170 L508 130 L516 156 L526 182 L534 140 L542 160 L550 198 L558 130 L568 150 L576 172 L584 134 L592 156 L602 184 L610 138 L618 160 L626 196 L634 132 L644 150 L652 174 L660 136 L668 158 L678 180 L686 142 L694 120 L702 160 L710 188 L718 134 L728 150 L736 170 L744 132 L752 156 L762 182 L770 140 L778 160 L788 196 L796 132 L806 150 L816 168 L820 150"
        fill="none" stroke="#5d678c" stroke-width="1.3" opacity="0.85"/>
  <!-- faint hidden dips -->
  <ellipse cx="230" cy="196" rx="22" ry="10" fill="#ff6b81" opacity="0.10"/>
  <ellipse cx="550" cy="198" rx="22" ry="10" fill="#ff6b81" opacity="0.10"/>
</svg>
